<svg width="260" height="172" viewBox="0 0 260 172" fill="none" xmlns="http://www.w3.org/2000/svg">
<rect width="260" height="172" fill="#E2E2E2"/>
<path d="M76 44V128.071H183V44H76ZM83.6429 51.6429H175.357V104.784L155.18 84.4842L152.429 81.7328L149.677 84.4842L135.117 99.0515L113.144 76.8414L110.393 74.0899L107.641 76.8414L83.6429 100.84V51.6429ZM160.071 59.2857C159.054 59.2627 158.041 59.4433 157.094 59.8168C156.147 60.1903 155.285 60.7493 154.556 61.4609C153.828 62.1725 153.25 63.0224 152.855 63.9606C152.46 64.8989 152.256 65.9067 152.256 66.9247C152.256 67.9428 152.459 68.9506 152.853 69.8891C153.248 70.8275 153.826 71.6777 154.554 72.3897C155.281 73.1016 156.144 73.661 157.091 74.035C158.038 74.4091 159.05 74.5901 160.068 74.5676C162.065 74.5234 163.965 73.6993 165.362 72.2715C166.759 70.8438 167.541 68.9259 167.541 66.9285C167.542 64.9311 166.761 63.0129 165.364 61.5844C163.968 60.156 162.068 59.3309 160.071 59.2857ZM110.393 84.9657L145.504 120.429H83.6429V111.716L110.393 84.9657ZM152.429 92.6086L175.357 115.537V120.429H156.365L140.487 104.424L152.429 92.6086Z" fill="white"/>
</svg>
