<svg width="297" height="213" viewBox="0 0 297 213" fill="none" xmlns="http://www.w3.org/2000/svg">
<rect width="297" height="213" fill="#1D1D1F"/>
<g clip-path="url(#clip0_95_13)">
<path d="M104.547 155H192.453C194.96 155 197 152.96 197 150.453V62.5469C197 60.04 194.96 58 192.453 58H104.547C102.04 58 100 60.04 100 62.5469V150.453C100 152.96 102.04 155 104.547 155ZM103.031 62.5469C103.031 62.1449 103.191 61.7594 103.475 61.4752C103.759 61.1909 104.145 61.0312 104.547 61.0312H192.453C192.855 61.0312 193.241 61.1909 193.525 61.4752C193.809 61.7594 193.969 62.1449 193.969 62.5469V150.453C193.969 150.855 193.809 151.241 193.525 151.525C193.241 151.809 192.855 151.969 192.453 151.969H104.547C104.145 151.969 103.759 151.809 103.475 151.525C103.191 151.241 103.031 150.855 103.031 150.453V62.5469Z" fill="#CCCCCC"/>
<path d="M162.141 95.8906C165.484 95.8906 168.203 93.1716 168.203 89.8281C168.203 86.4847 165.484 83.7656 162.141 83.7656C158.797 83.7656 156.078 86.4847 156.078 89.8281C156.078 93.1716 158.797 95.8906 162.141 95.8906ZM162.141 86.7969C162.741 86.7963 163.328 86.9738 163.828 87.307C164.327 87.6402 164.716 88.114 164.946 88.6686C165.176 89.2232 165.237 89.8335 165.12 90.4224C165.003 91.0112 164.714 91.5522 164.289 91.9767C163.865 92.4013 163.324 92.6903 162.735 92.8073C162.146 92.9243 161.536 92.8639 160.981 92.6339C160.427 92.4039 159.953 92.0145 159.619 91.515C159.286 91.0156 159.109 90.4285 159.109 89.8281C159.109 88.1579 160.467 86.7969 162.141 86.7969Z" fill="#CCCCCC"/>
<path d="M113.641 133.781H183.359C183.761 133.781 184.147 133.622 184.431 133.337C184.715 133.053 184.875 132.668 184.875 132.266V71.6406C184.875 71.2387 184.715 70.8532 184.431 70.5689C184.147 70.2847 183.761 70.125 183.359 70.125H113.641C113.239 70.125 112.853 70.2847 112.569 70.5689C112.285 70.8532 112.125 71.2387 112.125 71.6406V132.266C112.125 132.668 112.285 133.053 112.569 133.337C112.853 133.622 113.239 133.781 113.641 133.781ZM115.156 130.75V113.66C115.223 113.611 115.299 113.584 115.359 113.523L130.867 98.0155C131.264 97.6368 131.792 97.4254 132.34 97.4254C132.889 97.4254 133.417 97.6368 133.814 98.0155L156.612 120.814C156.892 121.094 157.27 121.253 157.666 121.257C158.062 121.262 158.444 121.111 158.73 120.838L170.449 109.707C170.831 109.322 171.348 109.101 171.89 109.092C172.433 109.084 172.957 109.288 173.35 109.662L181.844 118.913L181.847 118.916V130.75H115.156ZM181.844 73.1562V114.436L175.536 107.567C175.063 107.09 174.501 106.712 173.881 106.454C173.262 106.197 172.597 106.065 171.926 106.067H171.922C171.256 106.064 170.596 106.192 169.98 106.445C169.363 106.698 168.803 107.07 168.33 107.54L157.709 117.628L135.957 95.8724C134.02 93.9385 130.655 93.9415 128.724 95.8724L115.156 109.443V73.1562H181.844Z" fill="#CCCCCC"/>
</g>
<defs>
<clipPath id="clip0_95_13">
<rect width="97" height="97" fill="white" transform="translate(100 58)"/>
</clipPath>
</defs>
</svg>
