<svg width="32" height="32" viewBox="0 0 32 32" fill="none" xmlns="http://www.w3.org/2000/svg">
<path d="M17.6667 21L12.6667 16L17.6667 11M31 16C31 14.0302 30.612 12.0796 29.8582 10.2597C29.1044 8.43987 27.9995 6.78628 26.6066 5.3934C25.2137 4.00052 23.5601 2.89563 21.7402 2.14181C19.9204 1.38799 17.9698 1 16 1C14.0302 1 12.0796 1.38799 10.2597 2.14181C8.43986 2.89563 6.78628 4.00052 5.3934 5.3934C4.00052 6.78628 2.89562 8.43987 2.1418 10.2598C1.38798 12.0796 0.999999 14.0302 0.999999 16C1 19.9783 2.58035 23.7936 5.3934 26.6066C8.20645 29.4196 12.0218 31 16 31C19.9782 31 23.7936 29.4196 26.6066 26.6066C29.4196 23.7936 31 19.9782 31 16Z" stroke="black" stroke-width="2" stroke-linecap="round" stroke-linejoin="round"/>
</svg>
