<svg width="69" height="56" viewBox="0 0 69 56" fill="none" xmlns="http://www.w3.org/2000/svg">
<circle cx="51" cy="47.6667" r="6.66667" stroke="#FFC21A" stroke-width="2"/>
<circle cx="17.6667" cy="47.6667" r="6.66667" stroke="#FFC21A" stroke-width="2"/>
<path d="M11 47.5748C7.34425 47.3926 5.06368 46.8488 3.44078 45.2259C1.81788 43.603 1.27406 41.3224 1.09183 37.6667M24.3333 47.6667H44.3333M57.6667 47.5748C61.3224 47.3926 63.603 46.8488 65.2259 45.2259C67.6667 42.7851 67.6667 38.8567 67.6667 31V24.3333H52C49.5183 24.3333 48.2774 24.3333 47.2732 24.007C45.2436 23.3476 43.6524 21.7564 42.993 19.7268C42.6667 18.7226 42.6667 17.4817 42.6667 15C42.6667 11.2774 42.6667 9.41616 42.1772 7.90983C41.1881 4.86545 38.8012 2.47861 35.7568 1.48943C34.2505 1 32.3892 1 28.6667 1H1" stroke="#FFC21A" stroke-width="2" stroke-linecap="round" stroke-linejoin="round"/>
<path d="M1 14.333L21 14.333" stroke="#FFC21A" stroke-width="2" stroke-linecap="round" stroke-linejoin="round"/>
<path d="M1 24.333L14.3333 24.333" stroke="#FFC21A" stroke-width="2" stroke-linecap="round" stroke-linejoin="round"/>
<path d="M42.6667 7.6665H48.7374C53.5886 7.6665 56.0141 7.6665 57.9881 8.84554C59.9621 10.0246 61.112 12.1602 63.4119 16.4315L67.6667 24.3332" stroke="#FFC21A" stroke-width="2" stroke-linecap="round" stroke-linejoin="round"/>
</svg>
