<svg width="69" height="69" viewBox="0 0 69 69" fill="none" xmlns="http://www.w3.org/2000/svg">
<path d="M67.4167 34.0833C67.4167 15.6738 52.4928 0.75 34.0833 0.75C15.6738 0.75 0.75 15.6738 0.75 34.0833C0.75 52.4928 15.6738 67.4167 34.0833 67.4167C36.8892 67.4167 40.7499 67.8044 40.75 64.0833C40.75 62.0534 39.6941 60.4872 38.6453 58.9314C37.1107 56.655 35.5911 54.4011 37.4167 50.75C39.6389 46.3056 43.3426 46.3056 49.0217 46.3056C51.8612 46.3056 55.1946 46.3056 59.0834 45.75C66.0867 44.7495 67.4167 40.4447 67.4167 34.0833Z" stroke="black" stroke-width="1.5"/>
<path d="M17.416 44.0918L17.444 44.0843" stroke="black" stroke-width="9" stroke-linecap="round" stroke-linejoin="round"/>
<circle cx="25.75" cy="22.417" r="5" fill="white" stroke="white" stroke-width="6"/>
<circle cx="49.083" cy="25.75" r="5" fill="#DD0D0D" stroke="#DD0D0D" stroke-width="7"/>
</svg>
