<svg width="66" height="66" viewBox="0 0 66 66" fill="none" xmlns="http://www.w3.org/2000/svg">
<path d="M60.528 37.1891C56.5632 41.1533 49.1029 40.9992 37.6639 40.9992C30.3048 40.9992 24.338 35.0236 24.3342 27.6644C24.3342 16.2334 24.18 8.76884 28.1449 4.80461C32.1098 0.840393 33.8609 1.0009 51.4247 1.0009C53.122 0.993634 53.9763 3.0463 52.7762 4.24648L43.7329 13.2905C41.4376 15.5861 41.4312 19.3078 43.7269 21.6031C46.0226 23.8984 49.7446 23.8986 52.0406 21.6036L61.0863 12.5618C62.2867 11.362 64.3397 12.2161 64.3325 13.9132C64.3325 31.4741 64.4929 33.2249 60.528 37.1891Z" stroke="#FFC21A" stroke-width="2"/>
<path d="M37.6667 40.9998L17.0948 61.5718C13.4129 65.2537 7.44332 65.2537 3.76142 61.5718C0.0795246 57.8899 0.0795258 51.9203 3.76142 48.2384L24.3333 27.6665" stroke="#FFC21A" stroke-width="2" stroke-linecap="round"/>
<path d="M11.0299 54.333H11" stroke="#FFC21A" stroke-width="2" stroke-linecap="round" stroke-linejoin="round"/>
</svg>
