<svg width="69" height="66" viewBox="0 0 69 66" fill="none" xmlns="http://www.w3.org/2000/svg">
<path d="M45.9739 17.6665H46.0009M55.9739 17.6665H56.0009M67.6666 16.9445C67.6666 25.7498 60.2036 32.889 50.9999 32.889C49.9176 32.8903 48.8386 32.7903 47.7756 32.5907C47.0103 32.447 46.6276 32.3753 46.3606 32.416C46.0936 32.4567 45.7149 32.658 44.9579 33.0607C42.8166 34.1993 40.3196 34.6017 37.9183 34.155C38.8309 33.0323 39.4543 31.6853 39.7293 30.2413C39.8959 29.358 39.4833 28.5 38.8646 27.872C36.0553 25.0192 34.3333 21.1751 34.3333 16.9445C34.3333 8.13927 41.7959 1 50.9999 1C60.2036 1 67.6666 8.13927 67.6666 16.9445ZM28.6182 31.9622C28.6182 37.0666 24.4712 41.2045 19.3557 41.2045C14.2402 41.2045 10.0933 37.0666 10.0933 31.9622C10.0933 26.8579 14.2402 22.72 19.3557 22.72C24.4712 22.72 28.6182 26.8579 28.6182 31.9622ZM10.0608 64.3331C8.98316 64.3331 7.90095 64.1813 6.91115 63.7561C3.68913 62.3718 2.05439 60.5438 1.29254 59.4003C0.859058 58.7497 0.920798 57.9208 1.39111 57.2962C5.12412 52.3379 13.7951 49.343 19.3557 49.3428C24.9164 49.343 33.5715 52.3379 37.3045 57.2962C37.7748 57.9208 37.8366 58.7497 37.4031 59.4003C36.6412 60.5438 35.0065 62.3718 31.7845 63.7561C30.7947 64.1813 29.7125 64.3331 28.6348 64.3331H10.0608Z" stroke="white" stroke-width="2" stroke-linecap="round" stroke-linejoin="round"/>
</svg>
