<svg width="66" height="58" viewBox="0 0 66 58" fill="none" xmlns="http://www.w3.org/2000/svg">
<path d="M61 14.958V28.9163M1 14.958C1 23.5131 1 42.2443 1 43.3249C1 47.1844 7.48547 49.4788 20.4564 54.0677C25.6673 55.9113 28.2727 56.833 31 56.833L31 27.1153" stroke="#FFC21A" stroke-width="2" stroke-linecap="round" stroke-linejoin="round"/>
<path d="M41 48.4582C41 48.4582 43.9167 48.4582 46.8333 54.0415C46.8333 54.0415 56.098 40.0832 64.3333 37.2915" stroke="#FFC21A" stroke-width="2" stroke-linecap="round" stroke-linejoin="round"/>
<path d="M18.7531 22.4718L9.01572 18.5257C3.67191 16.36 1 15.2772 1 13.5625C1 11.8478 3.67191 10.765 9.01572 8.59935L18.7531 4.65322C24.7628 2.21774 27.7676 1 31 1C34.2324 1 37.2372 2.21774 43.2469 4.65322L52.9843 8.59934C58.3281 10.765 61 11.8478 61 13.5625C61 15.2772 58.3281 16.36 52.9843 18.5257L43.2469 22.4718C37.2372 24.9073 34.2324 26.125 31 26.125C27.7676 26.125 24.7628 24.9073 18.7531 22.4718Z" stroke="#FFC21A" stroke-width="2" stroke-linecap="round" stroke-linejoin="round"/>
<path d="M11 28.9165L17.6667 31.7082" stroke="#FFC21A" stroke-width="2" stroke-linecap="round" stroke-linejoin="round"/>
<path d="M47.6663 6.58301L14.333 20.5413" stroke="#FFC21A" stroke-width="2" stroke-linecap="round" stroke-linejoin="round"/>
</svg>
