<svg width="29" height="30" viewBox="0 0 29 30" fill="none" xmlns="http://www.w3.org/2000/svg">
<path d="M15.6228 2.5L8.03832 2.5C4.90089 2.5 4.24609 3.1475 4.24609 6.25L4.24609 27.5H19.415V6.25C19.415 3.1475 18.7602 2.5 15.6228 2.5Z" stroke="#FFC21A" stroke-width="2" stroke-linejoin="round"/>
<path d="M23.2082 10H19.416V27.5H27.0005V13.75C27.0005 10.6475 26.3457 10 23.2082 10Z" stroke="#FFC21A" stroke-width="2" stroke-linejoin="round"/>
<path d="M10.5674 7.5L13.0955 7.5M10.5674 11.25L13.0955 11.25M10.5674 15L13.0955 15" stroke="#FFC21A" stroke-width="2" stroke-linecap="round" stroke-linejoin="round"/>
<path d="M14.9913 27.5002V22.5002C14.9913 21.3217 14.9913 20.7325 14.621 20.3664C14.2508 20.0002 13.6549 20.0002 12.4631 20.0002H11.1991C10.0073 20.0002 9.41138 20.0002 9.04114 20.3664C8.6709 20.7325 8.6709 21.3217 8.6709 22.5002V27.5002" stroke="#FFC21A" stroke-width="2" stroke-linejoin="round"/>
</svg>
