<svg width="29" height="32" viewBox="0 0 29 32" fill="none" xmlns="http://www.w3.org/2000/svg">
<path d="M1 7.66667C1 6.78261 1.35119 5.93477 1.97631 5.30964C2.60143 4.68452 3.44928 4.33333 4.33333 4.33333H24.3333C25.2174 4.33333 26.0652 4.68452 26.6904 5.30964C27.3155 5.93477 27.6667 6.78261 27.6667 7.66667V27.6667C27.6667 28.5507 27.3155 29.3986 26.6904 30.0237C26.0652 30.6488 25.2174 31 24.3333 31H4.33333C3.44928 31 2.60143 30.6488 1.97631 30.0237C1.35119 29.3986 1 28.5507 1 27.6667V7.66667Z" fill="#FFC21A"/>
<path d="M21 1V7.66667Z" fill="#FFC21A"/>
<path d="M7.66667 1V7.66667Z" fill="#FFC21A"/>
<path d="M1 14.3333H27.6667Z" fill="#FFC21A"/>
<path d="M12.6667 21H14.3333Z" fill="#FFC21A"/>
<path d="M14.3333 21V26Z" fill="#FFC21A"/>
<path d="M21 1V7.66667M7.66667 1V7.66667M1 14.3333H27.6667M12.6667 21H14.3333V26M1 7.66667C1 6.78261 1.35119 5.93477 1.97631 5.30964C2.60143 4.68452 3.44928 4.33333 4.33333 4.33333H24.3333C25.2174 4.33333 26.0652 4.68452 26.6904 5.30964C27.3155 5.93477 27.6667 6.78261 27.6667 7.66667V27.6667C27.6667 28.5507 27.3155 29.3986 26.6904 30.0237C26.0652 30.6488 25.2174 31 24.3333 31H4.33333C3.44928 31 2.60143 30.6488 1.97631 30.0237C1.35119 29.3986 1 28.5507 1 27.6667V7.66667Z" stroke="white" stroke-width="2" stroke-linecap="round" stroke-linejoin="round"/>
</svg>
