<svg width="26" height="22" viewBox="0 0 26 22" fill="none" xmlns="http://www.w3.org/2000/svg">
<path d="M1 8.50021L6.83333 1.00024M6.83333 1.00024L13.1499 7.76798C13.4871 8.12926 13.6557 8.30991 13.8701 8.40506C14.0845 8.50021 14.323 8.50021 14.7998 8.50021H24.3333L19.8993 2.79931C19.2112 1.91463 18.8672 1.47229 18.3968 1.23627C17.9265 1.00024 17.3891 1.00024 16.3143 1.00024L6.83333 1.00024Z" stroke="#FFC21A" stroke-width="2" stroke-linecap="round" stroke-linejoin="round"/>
<path d="M10.8324 6.00024V21.0002H1.49902L1.49902 7.07167" stroke="#FFC21A" stroke-width="2" stroke-linecap="round" stroke-linejoin="round"/>
<path d="M10.834 21.0002H22.5007V7.25024" stroke="#FFC21A" stroke-width="2" stroke-linecap="round" stroke-linejoin="round"/>
<path d="M2.66602 5.37522L2.66602 1.00024" stroke="#FFC21A" stroke-width="2" stroke-linecap="round" stroke-linejoin="round"/>
<path d="M6.17601 11.0002L6.16553 11.0002" stroke="#FFC21A" stroke-width="2" stroke-linecap="round" stroke-linejoin="round"/>
<path d="M6.16602 21.0002L6.16602 16.0002" stroke="#FFC21A" stroke-width="2" stroke-linecap="round" stroke-linejoin="round"/>
<path d="M15.4997 13.5002L17.833 13.5002" stroke="#FFC21A" stroke-width="2" stroke-linecap="round" stroke-linejoin="round"/>
</svg>
