<svg width="50" height="50" viewBox="0 0 50 50" fill="none" xmlns="http://www.w3.org/2000/svg">
<path d="M25 0C38.8071 0 50 11.1929 50 25C50 38.8071 38.8071 50 25 50C11.1929 50 0 38.8071 0 25C0 11.1929 11.1929 0 25 0ZM12.75 15C11.7875 15 11 15.7875 11 16.75V34.25C11 35.2125 11.7875 36 12.75 36H37.25C38.2125 36 39 35.2125 39 34.25V16.75C39 15.7875 38.2125 15 37.25 15H12.75ZM18.1055 27.3555C18.5255 26.9355 19.2245 26.9355 19.6445 27.3555C20.082 27.7755 20.082 28.4745 19.6445 28.8945L14.3945 34.1445C14.1845 34.3545 13.905 34.46 13.625 34.46C13.345 34.46 13.0655 34.3545 12.8555 34.1445C12.6545 33.9386 12.542 33.6627 12.542 33.375C12.542 33.0873 12.6545 32.8114 12.8555 32.6055L18.1055 27.3555ZM30.3555 27.3555C30.7755 26.9355 31.4745 26.9355 31.8945 27.3555L37.1445 32.6055C37.582 33.0255 37.582 33.7245 37.1445 34.1445C36.9345 34.3545 36.655 34.46 36.375 34.46C36.095 34.46 35.8155 34.3545 35.6055 34.1445L30.3555 28.8945C30.1545 28.6886 30.042 28.4127 30.042 28.125C30.042 27.8373 30.1545 27.5614 30.3555 27.3555ZM35.6055 16.8555C36.0255 16.4355 36.7245 16.4355 37.1445 16.8555C37.582 17.2755 37.582 17.9745 37.1445 18.3945L26.4004 29.1572C26.0154 29.5422 25.5075 29.7354 25 29.7354C24.4925 29.7354 23.9846 29.5422 23.5996 29.1572L12.8555 18.3945C12.4355 17.9745 12.4355 17.2755 12.8555 16.8555C13.2755 16.4355 13.9745 16.4355 14.3945 16.8555L25 27.46L35.6055 16.8555Z" fill="#FFC21A"/>
</svg>
