<svg width="29" height="24" viewBox="0 0 29 24" fill="none" xmlns="http://www.w3.org/2000/svg">
<path d="M1 4.14286C1 3.30932 1.31607 2.50992 1.87868 1.92052C2.44129 1.33112 3.20435 1 4 1H25C25.7957 1 26.5587 1.33112 27.1213 1.92052C27.6839 2.50992 28 3.30932 28 4.14286V19.8571C28 20.6907 27.6839 21.4901 27.1213 22.0795C26.5587 22.6689 25.7957 23 25 23H4C3.20435 23 2.44129 22.6689 1.87868 22.0795C1.31607 21.4901 1 20.6907 1 19.8571V4.14286Z" fill="#FFC21A"/>
<path d="M1 4.14286L14.5 13.5714L28 4.14286" fill="#FFC21A"/>
<path d="M1 4.14286C1 3.30932 1.31607 2.50992 1.87868 1.92052C2.44129 1.33112 3.20435 1 4 1H25C25.7957 1 26.5587 1.33112 27.1213 1.92052C27.6839 2.50992 28 3.30932 28 4.14286M1 4.14286V19.8571C1 20.6907 1.31607 21.4901 1.87868 22.0795C2.44129 22.6689 3.20435 23 4 23H25C25.7957 23 26.5587 22.6689 27.1213 22.0795C27.6839 21.4901 28 20.6907 28 19.8571V4.14286M1 4.14286L14.5 13.5714L28 4.14286" stroke="white" stroke-width="2" stroke-linecap="round" stroke-linejoin="round"/>
</svg>
