<svg width="29" height="29" viewBox="0 0 29 29" fill="none" xmlns="http://www.w3.org/2000/svg">
<path d="M14.5 0C22.5081 0 29 6.49187 29 14.5C29 22.5081 22.5081 29 14.5 29C6.49187 29 0 22.5081 0 14.5C0 6.49187 6.49187 0 14.5 0ZM14.2256 6.60254C9.51364 6.8496 6.40309 10.5574 6.59961 15.2334C6.68546 17.28 7.5049 19.0411 7.69922 20.9834C7.74891 21.4865 7.60468 22.1082 8.18262 22.3281C8.89415 22.5979 9.9857 22.1443 10.582 21.7295C10.7853 21.5912 10.9798 21.4299 11.1289 21.2305C11.7455 21.6407 12.3304 22.0381 13.0645 22.2148C16.2968 22.9922 19.8387 21.2126 21.4131 18.3545C24.3722 12.9849 20.3719 6.28075 14.2256 6.60254ZM14.0518 10.4941C15.8135 10.3378 17.4489 11.235 18.1875 12.8555C19.8229 16.4616 15.6369 20.0228 12.3955 17.8105V17.8086C12.1405 18.0079 11.8943 18.2792 11.6123 18.4355C11.2035 18.6554 11.0764 18.4271 10.9229 18.0645C10.4395 16.9108 10.3807 14.9454 10.6631 13.7373C11.0426 12.094 12.3102 10.6483 14.0518 10.4941Z" fill="#FFC21A"/>
</svg>
