<svg width="49" height="49" viewBox="0 0 49 49" fill="none" xmlns="http://www.w3.org/2000/svg">
<circle cx="24.4138" cy="24.4138" r="24.4138" fill="#FFC21A"/>
<path d="M23.9508 11.116C16.0173 11.5319 10.7802 17.7754 11.1111 25.6484C11.2556 29.0946 12.6362 32.0598 12.9633 35.3304C13.0469 36.1776 12.8035 37.2233 13.7772 37.5935C14.9752 38.0476 16.8121 37.2844 17.8162 36.586C18.1585 36.3532 18.4856 36.0822 18.7366 35.7464C19.7749 36.4371 20.7599 37.105 21.996 37.4027C27.4384 38.7117 33.4019 35.7159 36.0527 30.9035C41.035 21.8627 34.2994 10.574 23.9508 11.116ZM20.8702 29.9838C20.4404 30.3196 20.0259 30.7776 19.5505 31.0409C18.8621 31.4111 18.6491 31.0256 18.3905 30.415C17.5766 28.4725 17.4777 25.1638 17.9531 23.1297C18.5921 20.3629 20.7257 17.9281 23.658 17.6686C26.6245 17.4052 29.378 18.9165 30.6217 21.6451C33.3752 27.7169 26.3278 33.7123 20.8702 29.9876V29.9838Z" fill="white"/>
</svg>
