<svg width="29" height="29" viewBox="0 0 29 29" fill="none" xmlns="http://www.w3.org/2000/svg">
<circle cx="14.5" cy="14.5" r="14.5" fill="black"/>
<path d="M14.2255 6.60208C9.51353 6.84914 6.40311 10.5573 6.59962 15.2333C6.68546 17.28 7.50542 19.0412 7.69968 20.9837C7.74938 21.4869 7.60481 22.1079 8.18307 22.3278C8.89461 22.5975 9.98563 22.1442 10.582 21.7294C10.7853 21.5911 10.9795 21.4302 11.1286 21.2307C11.7453 21.641 12.3303 22.0377 13.0644 22.2144C16.2968 22.9919 19.8387 21.2126 21.4131 18.3544C24.3722 12.9848 20.3718 6.28022 14.2255 6.60208ZM12.3958 17.8082C12.1406 18.0076 11.8944 18.2796 11.612 18.436C11.2031 18.6559 11.0767 18.427 10.9231 18.0643C10.4397 16.9106 10.3809 14.9454 10.6633 13.7373C11.0428 12.0941 12.31 10.648 14.0515 10.4938C15.8134 10.3374 17.4488 11.235 18.1875 12.8556C19.8229 16.4618 15.6373 20.0226 12.3958 17.8104V17.8082Z" fill="white"/>
</svg>
