<svg width="50" height="50" viewBox="0 0 50 50" fill="none" xmlns="http://www.w3.org/2000/svg">
<path d="M25 0C38.8071 0 50 11.1929 50 25C50 38.8071 38.8071 50 25 50C11.1929 50 0 38.8071 0 25C0 11.1929 11.1929 0 25 0ZM24.5264 11.3828C16.4025 11.8089 11.0401 18.2027 11.3789 26.2646C11.527 29.7934 12.9405 32.8297 13.2754 36.1787C13.3611 37.0462 13.1118 38.1169 14.1084 38.4961C15.3352 38.9611 17.217 38.18 18.2451 37.4648C18.5956 37.2265 18.9305 36.9484 19.1875 36.6045C20.2506 37.3117 21.2589 37.9959 22.5244 38.3008C28.0975 39.6412 34.2044 36.5734 36.9189 31.6455C42.0208 22.3876 35.1235 10.8279 24.5264 11.3828ZM24.2266 18.0928C27.2643 17.8231 30.0839 19.3709 31.3574 22.165C34.1771 28.3825 26.9607 34.5219 21.3721 30.708V30.7041C20.9321 31.048 20.5073 31.5165 20.0205 31.7861C19.3157 32.1651 19.0978 31.7706 18.833 31.1455C17.9996 29.1565 17.8981 25.7685 18.3848 23.6855C19.039 20.8524 21.224 18.3586 24.2266 18.0928Z" fill="#FFC21A"/>
</svg>
