<svg width="105" height="23" viewBox="0 0 105 23" fill="none" xmlns="http://www.w3.org/2000/svg">
<path d="M64.092 0C55.23 0 48.048 5.1439 48.048 11.5C48.048 17.8561 55.23 23 64.0815 23C72.9435 23 80.115 17.8561 80.115 11.5C80.1255 5.1439 72.954 0 64.092 0ZM64.092 17.6347C57.9705 17.6347 53.3925 14.3987 53.3925 11.5C53.3925 8.60128 57.9705 5.36526 64.092 5.36526C70.2135 5.36526 74.7915 8.60128 74.7915 11.5C74.781 14.3987 70.224 17.6347 64.092 17.6347Z" fill="#005BFF"/>
<path d="M11.466 0C5.1345 0 0 5.1439 0 11.4895C0 17.835 5.124 22.9895 11.445 23C17.766 23 22.9005 17.8561 22.911 11.5105V11.4895C22.911 5.1439 17.787 0 11.466 0ZM17.5665 11.4895C17.5665 14.8731 14.8365 17.6242 11.4555 17.6242C8.0745 17.6242 5.334 14.8836 5.334 11.4895C5.334 8.09533 8.064 5.34418 11.445 5.34418C14.826 5.35472 17.5665 8.09533 17.5665 11.4895Z" fill="#005BFF"/>
<path d="M29.0845 0.51651C27.4255 0.51651 26.029 2.03438 26.365 3.75253C26.617 5.01743 27.793 5.88177 29.0845 5.88177H36.5395L24.937 21.2502C24.559 21.7562 24.916 22.4835 25.546 22.4835H43.753C45.034 22.4835 46.2205 21.6192 46.4725 20.3543C46.819 18.6256 45.517 17.1183 43.858 17.1183H34.7755L46.3675 1.76032C46.756 1.25437 46.3885 0.51651 45.7585 0.51651H29.0845Z" fill="#005BFF"/>
<path d="M105 3.20441V21.714C105 21.8827 104.937 22.0513 104.832 22.1884C104.569 22.5257 104.086 22.5889 103.75 22.3254L89.2915 10.7938V19.7956C89.2915 21.2819 88.0945 22.4835 86.614 22.4835C85.1335 22.4835 83.9365 21.2819 83.9365 19.7956V1.28598C83.9365 1.10679 83.9995 0.938137 84.115 0.790566C84.3775 0.463802 84.8605 0.411098 85.1965 0.685158L99.6445 12.1957V3.20441C99.6445 1.71816 100.842 0.516506 102.322 0.516506C103.803 0.516506 105 1.71816 105 3.20441Z" fill="#005BFF"/>
</svg>
