<svg width="50" height="50" viewBox="0 0 50 50" fill="none" xmlns="http://www.w3.org/2000/svg">
<path d="M25 0C38.8071 0 50 11.1929 50 25C50 38.8071 38.8071 50 25 50C11.1929 50 0 38.8071 0 25C0 11.1929 11.1929 0 25 0ZM18.3574 13.0225C18.0338 12.9626 17.71 13.0221 17.4463 13.2139L13.5244 15.9248C13.2126 16.1407 13.0199 16.4886 13.0078 16.8604C12.9718 17.712 12.8165 25.305 18.7539 31.2305C24.1033 36.5798 30.7958 36.9882 32.6914 36.9883V37H33.1357C33.5075 36.9879 33.8554 36.7962 34.0713 36.4844L36.7939 32.5615C36.9737 32.2977 37.0462 31.9741 36.9863 31.6504C36.9569 31.4925 36.8952 31.3419 36.8066 31.208C36.7181 31.0742 36.6034 30.9598 36.4697 30.8711L30.5811 26.9482C30.0893 26.6244 29.429 26.6962 29.0332 27.1279L26.7783 29.5635C25.8667 29.0237 24.343 28.052 23.1436 26.8525C21.9441 25.6531 20.9724 24.1291 20.4326 23.2295L22.8682 20.9746C23.2997 20.5788 23.3836 19.9194 23.0479 19.4277L19.126 13.5381C18.9461 13.2742 18.6693 13.0824 18.3574 13.0225Z" fill="#FFC21A"/>
</svg>
