<svg width="28" height="37" viewBox="0 0 28 37" fill="none" xmlns="http://www.w3.org/2000/svg">
<path d="M9.125 15.9995C9.125 17.4913 9.63861 18.922 10.5529 19.9769C11.4671 21.0318 12.7071 21.6245 14 21.6245C15.2929 21.6245 16.5329 21.0318 17.4471 19.9769C18.3614 18.922 18.875 17.4913 18.875 15.9995C18.875 14.5076 18.3614 13.0769 17.4471 12.022C16.5329 10.9671 15.2929 10.3745 14 10.3745C12.7071 10.3745 11.4671 10.9671 10.5529 12.022C9.63861 13.0769 9.125 14.5076 9.125 15.9995Z" fill="#FFC21A"/>
<path d="M23.1926 26.6063L16.2978 34.562C15.6884 35.2644 14.8622 35.659 14.0008 35.659C13.1394 35.659 12.3133 35.2644 11.7039 34.562L4.80738 26.6063C2.98937 24.5085 1.7513 21.8358 1.24975 18.9261C0.748195 16.0164 1.00568 13.0004 1.98964 10.2596C2.97359 7.51872 4.63984 5.17609 6.77766 3.5279C8.91549 1.87971 11.4289 1 14 1C16.5711 1 19.0845 1.87971 21.2223 3.5279C23.3602 5.17609 25.0264 7.51872 26.0104 10.2596C26.9943 13.0004 27.2518 16.0164 26.7503 18.9261C26.2487 21.8358 25.0106 24.5085 23.1926 26.6063Z" fill="#FFC21A"/>
<path d="M9.125 15.9995C9.125 17.4913 9.63861 18.922 10.5529 19.9769C11.4671 21.0318 12.7071 21.6245 14 21.6245C15.2929 21.6245 16.5329 21.0318 17.4471 19.9769C18.3614 18.922 18.875 17.4913 18.875 15.9995C18.875 14.5076 18.3614 13.0769 17.4471 12.022C16.5329 10.9671 15.2929 10.3745 14 10.3745C12.7071 10.3745 11.4671 10.9671 10.5529 12.022C9.63861 13.0769 9.125 14.5076 9.125 15.9995Z" stroke="white" stroke-width="2" stroke-linecap="round" stroke-linejoin="round"/>
<path d="M23.1926 26.6063L16.2978 34.562C15.6884 35.2644 14.8622 35.659 14.0008 35.659C13.1394 35.659 12.3133 35.2644 11.7039 34.562L4.80738 26.6063C2.98937 24.5085 1.7513 21.8358 1.24975 18.9261C0.748195 16.0164 1.00568 13.0004 1.98964 10.2596C2.97359 7.51872 4.63984 5.17609 6.77766 3.5279C8.91549 1.87971 11.4289 1 14 1C16.5711 1 19.0845 1.87971 21.2223 3.5279C23.3602 5.17609 25.0264 7.51872 26.0104 10.2596C26.9943 13.0004 27.2518 16.0164 26.7503 18.9261C26.2487 21.8358 25.0106 24.5085 23.1926 26.6063Z" stroke="white" stroke-width="2" stroke-linecap="round" stroke-linejoin="round"/>
</svg>
