<svg width="30" height="30" viewBox="0 0 30 30" fill="none" xmlns="http://www.w3.org/2000/svg">
<path fill-rule="evenodd" clip-rule="evenodd" d="M29.1667 14.5833C29.1667 22.6375 22.6375 29.1667 14.5833 29.1667C6.52918 29.1667 0 22.6375 0 14.5833C0 6.52918 6.52918 0 14.5833 0C22.6375 0 29.1667 6.52918 29.1667 14.5833ZM15.1059 10.7661C13.6875 11.3561 10.8526 12.5772 6.60123 14.4294C5.91088 14.7039 5.54924 14.9725 5.51632 15.2351C5.46068 15.6789 6.01646 15.8537 6.77329 16.0917C6.87624 16.124 6.9829 16.1576 7.09226 16.1931C7.83686 16.4352 8.83848 16.7183 9.35918 16.7296C9.8315 16.7398 10.3587 16.5451 10.9407 16.1454C14.9128 13.4641 16.9633 12.1088 17.092 12.0796C17.1828 12.059 17.3087 12.0331 17.394 12.1089C17.4792 12.1846 17.4708 12.3282 17.4618 12.3667C17.4068 12.6014 15.2251 14.6296 14.0961 15.6793C13.7442 16.0065 13.4945 16.2386 13.4435 16.2916C13.3291 16.4103 13.2126 16.5227 13.1006 16.6306C12.4089 17.2975 11.8901 17.7975 13.1294 18.6142C13.7249 19.0066 14.2014 19.3311 14.6768 19.6549C15.196 20.0084 15.7139 20.3611 16.3839 20.8003C16.5546 20.9122 16.7176 21.0284 16.8764 21.1416C17.4806 21.5724 18.0234 21.9594 18.6941 21.8977C19.0838 21.8618 19.4863 21.4954 19.6907 20.4025C20.1738 17.8198 21.1235 12.2238 21.3429 9.91787C21.3622 9.71583 21.338 9.45727 21.3186 9.34377C21.2991 9.23026 21.2585 9.06855 21.111 8.94883C20.9363 8.80705 20.6665 8.77716 20.5459 8.77928C19.9974 8.78894 19.1559 9.08156 15.1059 10.7661Z" fill="black"/>
</svg>
